PathFileType	4	(X/Y/Z)	C:\Users\WrightLab\Desktop\Jo\P5V210.trc
DataRate	CameraRate	NumFrames	NumMarkers	Units	OrigDataRate	OrigDataStartFrame	OrigNumFrames
100.00	100.00	       16	19	mm	100.00	448	       716
Frame#	Time	Headset_Front			Headset_Back			Headset_Left			Headset_Right			Left_Shoulder			Right_Shoulder			Sternum			C7			Left Elbow			Right Elbow			Left Wrist			Right Wrist			Left ASIS			Right ASIS			S2			Left Knee			Right Knee			Left Ankle			Right Ankle			
		X1	Y1	Z1	X2	Y2	Z2	X3	Y3	Z3	X4	Y4	Z4	X5	Y5	Z5	X6	Y6	Z6	X7	Y7	Z7	X8	Y8	Z8	X9	Y9	Z9	X10	Y10	Z10	X11	Y11	Z11	X12	Y12	Z12	X13	Y13	Z13	X14	Y14	Z14	X15	Y15	Z15	X16	Y16	Z16	X17	Y17	Z17	X18	Y18	Z18	X19	Y19	Z19	

448	4.470	-105.18991	1468.76624	-80.25039				-128.47676	1599.82458	-243.91145	-206.66533	1567.85950	-27.09488	-212.21156	1512.68787	-403.06705				-236.98540	1309.87646	-194.11858	-418.23022	1528.11560	-257.00729	-169.79518	1222.72937	-490.14432	-321.56631	1192.86023	86.63835	-92.18019	995.08832	-409.19095	-110.88074	1073.13672	143.88550	-150.20856	938.84491	-305.37909	-306.14569	939.68616	-74.23930	-433.11032	981.25934	-368.90427	-118.74633	499.99890	-316.16220	-401.52289	496.18198	-57.86003	-131.79588	90.52310	-331.36438	-406.58859	92.37878	-172.64978	
449	4.480	-102.44592	1468.52161	-81.23602				-126.36258	1599.93665	-244.65071	-203.85580	1568.32532	-27.46621	-211.30940	1513.13538	-404.25455				-235.02483	1310.62073	-194.95612	-416.38901	1528.35779	-256.28329	-170.39418	1222.98730	-489.81747	-316.45178	1193.57349	87.43346	-92.27447	994.53357	-411.04156	-106.00643	1074.20300	143.19429	-149.37390	938.97186	-306.99911	-303.14185	940.39038	-73.31796	-432.18518	981.51953	-367.11240	-118.57560	500.35321	-317.77216	-399.56302	496.33444	-57.44434	-131.24731	90.31662	-331.67883	-406.38638	92.49918	-172.88901	
450	4.490	-99.71323	1468.41479	-82.72851				-124.55085	1599.86755	-246.49947	-199.86636	1568.08838	-28.58825	-210.78108	1513.13928	-405.05286				-232.81226	1311.17969	-195.37285	-414.81799	1528.58142	-255.84299	-170.39845	1222.99561	-489.81006	-312.08740	1194.32263	87.83188	-92.48536	994.39777	-412.17783	-101.32897	1075.58459	142.90462	-148.95313	939.99646	-308.01273	-299.12881	941.10498	-73.65189	-431.33530	981.83557	-365.90726	-118.25537	500.86377	-319.51944	-397.93964	496.17456	-55.46804	-130.81920	90.36455	-332.18942	-406.26785	92.55132	-172.80048	
451	4.500	-96.40925	1468.40454	-84.40138				-122.74454	1599.57776	-246.77937	-196.85368	1567.85278	-29.74612	-210.11052	1513.57666	-405.14499				-229.69751	1311.06726	-195.35175	-412.68256	1529.25024	-254.77374	-169.99832	1223.67798	-491.98474	-307.94650	1195.20764	87.58466	-92.80179	993.99207	-414.49042	-95.26542	1075.89685	141.34210	-148.11398	939.64264	-309.03558	-298.24442	940.58698	-71.31471	-430.36029	982.76245	-364.93158	-117.98073	501.10864	-320.52014	-395.77371	497.12949	-52.89155	-130.69214	89.96140	-332.11298	-406.01001	92.77479	-172.57135	
452	4.510	-94.23370	1469.07202	-85.71654				-120.59396	1599.43164	-248.52826	-194.31000	1568.76013	-30.17747	-209.40703	1513.84961	-405.66550				-227.83722	1312.32092	-196.47491	-411.10184	1529.20325	-254.07619	-170.38678	1223.67932	-492.92880	-303.14340	1196.34583	87.83379	-91.83923	994.95032	-415.93936	-91.08585	1078.26355	141.01830	-146.68108	940.37823	-310.28519	-293.95987	940.81396	-71.38640	-429.85135	983.02185	-364.66171	-117.31760	501.97168	-322.60214	-395.03683	497.39740	-52.29207	-130.56139	89.91917	-332.42389	-405.77032	92.95442	-172.71371	
453	4.520	-91.01619	1468.65186	-87.73561				-118.86294	1599.90881	-249.31226	-190.24828	1568.42236	-31.40553	-208.91719	1514.23596	-407.17776				-226.27646	1312.36902	-197.31093	-409.56265	1529.93115	-254.22612	-170.94322	1223.60950	-492.84384	-298.45502	1197.04761	88.17502	-91.72377	994.59833	-417.39200	-85.83984	1079.53052	139.92618	-145.80652	940.36676	-311.57733	-290.19049	941.42059	-72.06005	-429.14572	983.34326	-363.60779	-117.06864	502.34323	-324.19043	-392.41946	497.55383	-51.44204	-130.73935	89.80380	-332.64664	-405.66196	93.00774	-172.65434	
454	4.530	-89.64399	1468.24915	-89.45357				-117.02383	1599.95142	-251.22417	-185.98532	1567.53137	-32.64314	-208.33115	1514.50720	-407.97543				-224.16481	1312.46631	-197.95755	-408.02194	1530.08594	-252.92535	-170.26308	1224.05457	-495.18280	-294.36456	1197.98022	88.79086	-91.19299	994.83978	-419.33804	-80.71395	1080.81360	138.86765	-144.37492	940.83527	-312.89468	-287.40179	940.99402	-73.14653	-428.55453	983.23859	-361.69434	-116.60279	501.82538	-325.91412	-390.65085	497.56198	-50.10804	-130.94859	89.63423	-333.08032	-405.34891	93.27438	-173.00117	
455	4.540	-86.64381	1468.66272	-91.56053				-115.17001	1599.91333	-252.61533	-184.92342	1568.29163	-32.93659	-207.82759	1514.86011	-408.60126				-222.24905	1312.49121	-199.10097	-405.68359	1530.33276	-252.33308	-170.38785	1224.48376	-495.59583	-289.30667	1198.89954	89.69266	-91.12207	994.80267	-420.85022	-75.34525	1082.34753	138.24701	-143.06773	940.80176	-314.32669	-284.73056	941.12775	-71.99662	-427.82349	983.90253	-360.90179	-115.75074	502.13861	-327.65771	-388.86258	497.81390	-48.61221	-130.94228	89.30395	-332.86288	-405.05243	93.47747	-173.21539	
456	4.550	-83.70639	1468.20300	-92.67286				-113.44555	1600.26733	-254.33321	-181.23853	1568.42480	-34.03149	-206.97437	1514.81604	-409.82739				-219.21236	1313.11072	-199.39421	-404.02026	1530.36084	-252.14342	-170.38649	1224.51221	-497.27353	-285.76373	1199.82520	89.99557	-89.97192	994.97650	-421.45221	-70.17989	1083.26721	137.21846	-140.89700	940.77704	-315.89481	-281.59476	940.95337	-73.12407	-427.36813	984.29895	-360.60172	-115.25724	502.05301	-328.90131	-385.81854	498.08432	-47.85844	-131.12590	89.15051	-333.01767	-405.07324	93.77254	-173.43636	
457	4.560	-80.90398	1468.12988	-94.38602				-111.43401	1599.77905	-255.06429	-178.25659	1568.32874	-34.95242	-206.18175	1515.01025	-410.76544				-217.76772	1312.99707	-200.30322	-401.85013	1530.86475	-251.86497	-170.13588	1225.24048	-498.68274	-280.67654	1200.33472	89.94973	-88.75546	994.83020	-424.26022	-65.33582	1084.89099	136.32816	-139.54634	940.54999	-316.47473	-278.35452	940.88190	-74.69426	-426.91818	984.47864	-359.81564	-114.48985	501.92139	-330.92923	-383.89688	497.46783	-47.38990	-131.55836	88.92649	-332.88373	-404.87195	93.93123	-173.25232	
458	4.570	-78.05543	1468.21875	-95.42334				-109.63419	1599.85693	-256.42062	-175.52679	1568.21423	-35.79564	-205.48187	1515.21912	-411.09491				-215.38991	1312.48718	-200.90575	-400.05515	1530.77661	-251.20343	-169.74443	1224.55481	-499.03156	-275.83530	1201.33203	91.00316	-88.29906	995.21930	-424.57242	-58.90020	1086.16919	135.17699	-137.53761	940.61487	-318.24805	-275.86954	941.42999	-75.29153	-426.42761	984.01544	-357.54330	-114.06797	501.06583	-332.30997	-381.98514	497.81210	-46.12307	-131.43222	88.88011	-333.04568	-404.79105	93.94317	-173.23956	
459	4.580	-75.86904	1467.93970	-96.06786				-107.81054	1600.15576	-257.71115	-172.71808	1568.41150	-36.59846	-204.42757	1514.94482	-413.03244				-213.32269	1313.16394	-202.49884	-398.68979	1530.75647	-250.99744	-170.10378	1223.81116	-498.93173	-270.31741	1201.94983	90.62017	-88.30486	995.22101	-427.44495	-54.42844	1087.15173	134.75636	-136.02824	940.62701	-319.27487	-273.26074	941.35608	-77.11954	-425.99130	983.68622	-356.64261	-114.06902	501.18182	-334.17776	-379.00058	498.29593	-45.57348	-131.65504	88.83022	-332.92014	-404.74435	94.16075	-173.43791	
460	4.590	-73.46958	1467.87671	-98.08467				-105.91567	1600.44556	-259.05557	-169.65356	1568.36536	-37.36438	-204.40790	1514.22192	-412.04614				-211.28130	1313.70068	-203.73526	-396.36758	1530.98694	-250.23466	-169.36508	1224.42200	-501.96094	-265.53140	1203.50635	90.41755	-87.30824	995.60669	-428.35489	-49.44195	1088.64478	133.61111	-134.43242	940.81628	-320.81750	-270.62506	941.37451	-78.44015	-425.15622	984.25598	-356.13828	-113.36069	500.81003	-335.80426	-375.02039	498.40466	-42.07209	-131.65709	88.78371	-332.94116	-404.52457	94.34834	-173.44022	
461	4.600	-70.64162	1468.02869	-99.20023				-103.95192	1600.05225	-259.96906	-166.26566	1568.38611	-38.60014	-202.66519	1515.56958	-413.37604				-209.13106	1313.48816	-203.68129	-394.65845	1531.20874	-250.04712	-169.20337	1224.85803	-503.94528	-260.46695	1203.98035	90.34525	-85.97755	996.07910	-429.57150	-43.74239	1089.68604	132.58670	-133.11324	940.43695	-321.77893	-268.74701	941.29694	-79.75288	-424.34491	984.40308	-355.38208	-112.87512	500.82538	-337.51944	-371.57999	499.04214	-42.40376	-131.63564	88.56435	-332.79538	-404.22464	94.71387	-173.31009	
462	4.610	-67.95121	1468.41638	-100.35175				-101.99557	1600.17834	-260.86755	-163.87912	1568.70728	-39.73848	-202.57190	1514.07056	-413.38812				-206.88818	1313.65417	-204.44817	-393.11057	1531.02161	-249.75540	-168.81532	1225.53284	-504.22327	-255.24255	1204.51404	90.49735	-85.56659	995.87189	-431.08347	-38.55418	1091.22351	130.57706	-131.85930	940.49493	-322.93896	-266.42722	941.71808	-80.54441	-423.43207	985.14740	-355.92343	-112.38831	501.17053	-339.94052	-368.97250	499.10577	-41.59157	-131.63925	88.68144	-332.98911	-404.18445	94.69798	-173.60297	
463	4.620	-65.73258	1468.51941	-101.81898				-100.11808	1600.10449	-262.33038	-161.07832	1568.77856	-40.38705	-200.41504	1515.47668	-415.38818				-204.29915	1313.82654	-204.73740	-390.82892	1531.22998	-249.55417	-168.05139	1225.62915	-505.30716	-250.11189	1205.73401	89.45351	-83.85989	996.52753	-432.93692	-32.98238	1092.43225	129.26596	-130.34792	941.21509	-324.55634	-263.73071	942.30603	-81.23581	-422.75571	985.02466	-355.62747	-112.21895	500.59802	-341.71210	-367.23798	498.38644	-41.17653	-131.36832	88.67949	-333.56155	-404.09134	94.77587	-173.27803	
